# xmcd CD database file
#
# Track frame offsets:
#	150
#	21752
#	37972
#	49425
#	72717
#	87102
#	103887
#
# Disc length: 1771 seconds
#
# Revision: 0
# Processed by: cddbd v1.5.1PL0 Copyright (c) Steve Scherf et al.
# Submitted via: CDex 1.51
#
DISCID=5e06e907
DTITLE=OTAL - OTAL
DYEAR=1998
DGENRE=Rock
TTITLE0=よくわかんない
TTITLE1=サマーウィンター
TTITLE2=森の中でサンバ
TTITLE3=感じる不思議
TTITLE4=中途半端
TTITLE5=Here I am
TTITLE6=トフトフ
EXTD=YEAR: 1998.03/28
EXTT0=
EXTT1=
EXTT2=
EXTT3=
EXTT4=
EXTT5=
EXTT6=
PLAYORDER=
